<svg xmlns="http://www.w3.org/2000/svg" version="1.1" xmlns:xlink="http://www.w3.org/1999/xlink" xmlns:svgjs="http://svgjs.com/svgjs" width="512" height="512" x="0" y="0" viewBox="0 0 64 64" style="enable-background:new 0 0 512 512" xml:space="preserve" class=""><g><path xmlns="http://www.w3.org/2000/svg" d="m3 31h58v4h-58z" fill="#4891d3" data-original="#4891d3" class=""></path><path xmlns="http://www.w3.org/2000/svg" d="m10 31 3-12h5l2-6h5l7-10 4 9 9 6v5l5 8z" fill="#aae1f9" data-original="#aae1f9" class=""></path><path xmlns="http://www.w3.org/2000/svg" d="m10 35 6 7v7h5l1 7 6 5 2-10 2 6 5 2 4-8v-8l5-1 4-7" fill="#57b7eb" data-original="#57b7eb" class=""></path><g xmlns="http://www.w3.org/2000/svg" fill="#4891d3"><path d="m30 35 1 7 4 7 2-8 3-3v-3" fill="#4891d3" data-original="#4891d3" class=""></path><path d="m26 17 1 7 3 1v6h-13.04l1.04-5 4-1z" fill="#4891d3" data-original="#4891d3" class=""></path><path d="m45 23v-5l-9-6-4-9 2 16 5 6v6h11z" fill="#4891d3" data-original="#4891d3" class=""></path><path d="m10 35 6 7v7h5l1 7 6 5-3-11v-5l-4-3v-7" fill="#4891d3" data-original="#4891d3" class=""></path></g><path xmlns="http://www.w3.org/2000/svg" d="m7 31h54a0 0 0 0 1 0 0v2a0 0 0 0 1 0 0h-52a2 2 0 0 1 -2-2 0 0 0 0 1 0 0z" fill="#57b7eb" data-original="#57b7eb" class=""></path></g></svg>