<svg width="316" height="512" viewBox="0 0 316 512" fill="none" xmlns="http://www.w3.org/2000/svg">
<path d="M247.995 511.998C285.369 511.998 315.667 481.7 315.667 444.326V157.667C315.667 70.5911 245.079 0 158.002 0C70.9241 0 0.334534 70.5911 0.334534 157.667V444.328C0.334534 481.7 30.631 512 68.0065 512H247.995V511.998Z" fill="#333E48"/>
<path d="M158.002 296.009C110.449 296.009 71.9024 334.559 71.9024 382.11V511.997H244.102V382.11C244.101 334.559 205.551 296.009 158.002 296.009Z" fill="#E8E8E8"/>
<path d="M260.046 175.584V130.443C260.046 99.4812 234.946 74.382 203.985 74.382C184.945 74.382 168.135 83.8819 158.002 98.3892C147.868 83.8819 131.058 74.382 112.018 74.382C81.0574 74.382 55.9566 99.4812 55.9566 130.443V175.585C48.7186 184.614 44.7808 195.844 44.7951 207.416C44.7951 235.595 67.639 258.439 95.8183 258.439H220.185C248.362 258.439 271.206 235.595 271.206 207.416C271.221 195.844 267.284 184.614 260.046 175.584V175.584Z" fill="white"/>
<path d="M183.563 186.789C183.563 172.674 172.119 161.229 158.002 161.229C143.885 161.229 132.441 172.674 132.441 186.789C132.441 200.906 158.002 212.35 158.002 212.35C158.002 212.35 183.563 200.906 183.563 186.789Z" fill="#ED9900"/>
<path d="M87.1737 142.493C87.1737 145.951 88.5472 149.267 90.9922 151.712C93.4371 154.157 96.7531 155.53 100.211 155.53C103.668 155.53 106.985 154.157 109.429 151.712C111.874 149.267 113.248 145.951 113.248 142.493C113.248 139.035 111.874 135.719 109.429 133.274C106.985 130.829 103.668 129.456 100.211 129.456C96.7531 129.456 93.4371 130.829 90.9922 133.274C88.5472 135.719 87.1737 139.035 87.1737 142.493V142.493Z" fill="#333E48"/>
<path d="M202.754 142.493C202.754 145.951 204.127 149.267 206.572 151.712C209.017 154.157 212.333 155.53 215.791 155.53C219.248 155.53 222.564 154.157 225.009 151.712C227.454 149.267 228.828 145.951 228.828 142.493C228.828 139.035 227.454 135.719 225.009 133.274C222.564 130.829 219.248 129.456 215.791 129.456C212.333 129.456 209.017 130.829 206.572 133.274C204.127 135.719 202.754 139.035 202.754 142.493V142.493Z" fill="#333E48"/>
<path d="M112.294 474.099H70.5368C60.0709 474.099 51.5886 482.584 51.5886 493.05C51.5886 503.516 60.0725 512 70.5368 512H112.294C122.76 512 131.245 503.516 131.245 493.05C131.244 482.584 122.758 474.099 112.294 474.099ZM203.706 474.099H245.465C255.931 474.099 264.414 482.584 264.414 493.05C264.414 503.516 255.931 512 245.465 512H203.706C193.242 512 184.756 503.516 184.756 493.05C184.758 482.584 193.243 474.099 203.706 474.099Z" fill="#ED9900"/>
</svg>
