<svg xmlns="http://www.w3.org/2000/svg" version="1.1" xmlns:xlink="http://www.w3.org/1999/xlink" xmlns:svgjs="http://svgjs.com/svgjs" width="512" height="512" x="0" y="0" viewBox="0 0 512 512" style="enable-background:new 0 0 512 512" xml:space="preserve" class=""><g><linearGradient xmlns="http://www.w3.org/2000/svg" id="linear-gradient" gradientUnits="userSpaceOnUse" x1="244.666" x2="229.417" y1="502.646" y2="463.572"><stop offset="0" stop-color="#ed4d18"></stop><stop offset="1" stop-color="#ff9045"></stop></linearGradient><linearGradient xmlns="http://www.w3.org/2000/svg" id="linear-gradient-2" x1="292.003" x2="271.818" xmlns:xlink="http://www.w3.org/1999/xlink" xlink:href="#linear-gradient" y1="523.316" y2="471.732"></linearGradient><linearGradient xmlns="http://www.w3.org/2000/svg" id="linear-gradient-3" gradientUnits="userSpaceOnUse" x1="183.838" x2="286.838" y1="259.077" y2="268.077"><stop offset="0" stop-color="#f9f2c7"></stop><stop offset="1" stop-color="#efd9b4"></stop></linearGradient><linearGradient xmlns="http://www.w3.org/2000/svg" id="linear-gradient-4" gradientUnits="userSpaceOnUse" x1="131.618" x2="181.331" y1="52.605" y2="52.605"><stop offset=".451" stop-color="#ffb243"></stop><stop offset="1" stop-color="#ff9045"></stop></linearGradient><linearGradient xmlns="http://www.w3.org/2000/svg" id="linear-gradient-5" gradientUnits="userSpaceOnUse" x1="402.431" x2="159.443" y1="362.278" y2="51.794"><stop offset="0" stop-color="#562442"></stop><stop offset="1" stop-color="#4f4c79"></stop></linearGradient><path xmlns="http://www.w3.org/2000/svg" d="m296 461.92s11.45 24.294-20 25.964c-38.02 2.01-50.29 16.086-50.29 16.086h-46.41a2 2 0 0 1 -1.639-3.147c4.973-7.151 19.873-24.03 49.87-24.353 38.08-.42 37.18-15.24 37.18-15.24l-.021-11.423s.644-5.807 7.978-6.487c15.945-1.48 23.332 18.6 23.332 18.6z" fill="url(#linear-gradient)" data-original="url(#linear-gradient)"></path><path xmlns="http://www.w3.org/2000/svg" d="m332.58 470.17c9.519 13.1 7.625 25.454 6.043 30.892a4.011 4.011 0 0 1 -3.849 2.908h-111.783a2 2 0 0 1 -1.262-3.554c6.529-5.275 21.834-14.71 48.991-16.146 31.45-1.67 25.28-22.35 25.28-22.35s.06-4.876 2.033-7.253c5.095-6.142 19.134-7.834 26.207 6.563a52.009 52.009 0 0 1 8.34 8.94z" fill="url(#linear-gradient-2)" data-original="url(#linear-gradient-2)"></path><path xmlns="http://www.w3.org/2000/svg" d="m371.85 369.73c-7.39 35.3-26.26 86.57-47.61 91.5a80.522 80.522 0 0 1 -28.24.69s-13.22-2.9-31.05-11.98c-33.52-17.07-83.32-55.98-92.09-138.57-11.23-105.65 7.69-184.87 38.89-216.69l36.75-23.18s61.62 35.9 73.833 55.5c50.93 81.723 49.517 242.73 49.517 242.73z" fill="url(#linear-gradient-3)" data-original="url(#linear-gradient-3)" class=""></path><path xmlns="http://www.w3.org/2000/svg" d="m171.52 35.98c11.85 7.85 9.65 33.25 9.65 33.25l-48.7-7.587a1 1 0 0 1 -.37-1.843z" fill="url(#linear-gradient-4)" data-original="url(#linear-gradient-4)"></path><path xmlns="http://www.w3.org/2000/svg" d="m384.99 180.07c-26.88-100.99-94.42-151.07-112.89-161.33s-46.8-24.22-100.58 17.24c11.85 7.85 9.65 33.25 9.65 33.25s8.41 15.29 30.58 25.45l29.334-12.854a3 3 0 0 1 4.186 2.426c.565 5.516 2.315 15.637 7.73 24.748a97.388 97.388 0 0 0 12.065 15.61 1.991 1.991 0 0 1 .462 1.913c-39.9 140.705 1.306 229.738 28.944 259.217 27.71 29.558 47.106 29.414 43.72-4.31-1.253-12.483.869-31.841 4.694-52.553a2.7 2.7 0 0 1 5.237-.324c3.7 11.489 7.753 16.447 13.424 27.914 5.386 10.889 8.436 22.528 5.082 34.1-9.234 31.848-24.987 66.649-42.388 70.667a52.009 52.009 0 0 1 8.34 8.94l.01-.01c9.25 10.91 19.34 15.57 26.01 17.56a3.781 3.781 0 0 0 4.71-4.67c-2.36-8.29-3.56-25.85 9.36-57.9 19.71-48.854 39.2-144.094 12.32-245.084z" fill="url(#linear-gradient-5)" data-original="url(#linear-gradient-5)"></path><circle xmlns="http://www.w3.org/2000/svg" cx="204.399" cy="45.004" fill="#382d54" r="5.895" data-original="#382d54"></circle></g></svg>