<svg xmlns="http://www.w3.org/2000/svg" version="1.1" xmlns:xlink="http://www.w3.org/1999/xlink" xmlns:svgjs="http://svgjs.com/svgjs" width="512" height="512" x="0" y="0" viewBox="0 0 511 511.92451" style="enable-background:new 0 0 512 512" xml:space="preserve"><g><path xmlns="http://www.w3.org/2000/svg" d="m13.636719 449.183594c13.015625 7.113281 27.160156 7.722656 49.984375 1.996094 14.113281-4.058594 28.707031-6.21875 43.390625-6.421876 9.058593.097657 17.96875 2.296876 26.035156 6.421876 9.109375 4.511718 1.367187 36.554687 5.703125 33.082031 0 .089843 10.304688 1.542969 10.304688 1.628906 4.773437 15.878906 36.058593-8.679687 36.058593-8.679687s30.71875-24.558594 76.714844-84.085938c.550781 2.605469.957031 5.242188 1.214844 7.894531-.09375 9.445313 1.015625 18.863281 3.296875 28.03125 1.820312 4.945313 5.898437 8.070313 10.671875 4.683594 10.675781-7.636719 15.96875-23.082031 20.914062-34.625 6.773438-19.359375 7.589844-40.308594 2.34375-60.136719 27.355469-44.058594 46.742188-92.582031 57.273438-143.359375 5.644531-23.128906 7.113281-47.082031 4.339843-70.726562-2.507812-7.097657-3.96875-14.523438-4.339843-22.042969.148437-.988281.503906-1.933594 1.042969-2.777344.050781-.042968.082031-.105468.085937-.171875 9.882813-13.21875 18.925781-27.042969 27.074219-41.394531 0 0 17.097656-17.789062-6.507813-19.175781.664063-.640625 1.425781-1.167969 2.257813-1.5625 7.203125-3.386719-11.195313-11.890625-5.988282-15.621094-7.203124-6.25-18.136718-3.644531-34.191406-9.027344-27.25-9.109375-45.734375-12.0625-64.128906 10.589844-6.746094 8.566406-12.15625 18.105469-16.054688 28.289063-10.761718 27.074218-35.839843 47.640624-56.492187 67.253906-27.964844 25.21875-53.453125 53.058594-76.109375 83.136718-21.730469 31.539063-40.914062 64.765626-57.359375 99.363282-12.671875 25.945312-15.792969 52.585937-24.90625 80.007812-12.84375 38.617188-30.199219 47.296875-35.667969 55.019532-1.347656 2.019531-1.785156 4.511718-1.207031 6.871093.574219 2.359375 2.117187 4.371094 4.246094 5.539063zm0 0" fill="#ecf0f1" data-original="#ecf0f1"></path><path xmlns="http://www.w3.org/2000/svg" d="m210.367188 292.632812c-1.613282 20.695313 10.847656 38.789063 23.167968 54.929688 11.542969 15.1875 23.953125 27.421875 28.292969 45.5625.550781 2.605469.957031 5.242188 1.214844 7.894531-.09375 9.445313 1.015625 18.863281 3.296875 28.03125 1.820312 4.945313 5.898437 8.070313 10.671875 4.683594 10.675781-7.636719 15.96875-23.082031 20.914062-34.625 6.773438-19.359375 7.589844-40.308594 2.34375-60.136719-.695312-2.949218-1.386719-5.726562-2.082031-8.503906-6.59375-24.90625-15.273438-49.203125-22.214844-74.023438-2.777344-9.980468-11.195312-35.578124 4.597656-39.570312 8.578126-1.851562 16.65625-5.519531 23.691407-10.761719 6.90625-4.402343 10.863281-12.21875 10.328125-20.394531-2.605469-12.753906-18.917969-14.230469-26.554688-22.734375-10.242187-11.457031-4.425781-26.035156 2.082032-37.664063 8.375-13.402343 14.230468-28.226562 17.269531-43.734374 1.277343-8.414063 8.332031-14.742188 16.835937-15.101563 22.214844-.78125 26.03125-13.449219 26.292969-21.261719.066406-2.25 1.035156-4.375 2.691406-5.898437.664063-.640625 1.425781-1.167969 2.253907-1.5625 7.132812-4.605469 13.839843-9.832031 20.046874-15.621094-10.15625-8.042969-21.761718-14.054687-34.191406-17.703125-25.871094-10.207031-55.371094-2.402344-72.808594 19.265625-6.742187 8.566406-12.15625 18.105469-16.054687 28.289063-10.757813 27.074218-35.839844 47.640624-56.492187 67.253906-27.964844 25.21875-53.449219 53.058594-76.105469 83.136718-21.734375 31.539063-40.914063 64.765626-57.363281 99.363282-12.957032 25.894531-24.175782 52.621094-33.582032 80.007812-12.84375 38.617188-21.523437 55.972656-26.988281 63.699219-1.347656 2.019531-1.789063 4.511719-1.210937 6.871094.578124 2.359375 2.117187 4.367187 4.246093 5.535156 17.605469 10.578125 38.464844 14.375 58.664063 10.675781 14.113281-4.058594 28.707031-6.21875 43.390625-6.421875 9.058593.097657 17.96875 2.296875 26.035156 6.421875 9.109375 4.511719 13.015625 3.472656 17.355469 0-6.941406-14.320312-6.421875-36.96875 17.355468-60.746094 32.195313-32.195312 40.527344-88.429687 42.609376-115.15625zm0 0" fill="#2c2f38" data-original="#2c2f38"></path><path xmlns="http://www.w3.org/2000/svg" d="m150.402344 468.796875-17.617188 33.363281 52.328125 1.085938v-26.035156s-29.851562 7.464843-34.625-8.414063zm0 0" fill="#2c2f38" data-original="#2c2f38"></path><path xmlns="http://www.w3.org/2000/svg" d="m104.582031 462.113281v32.457031c.011719 4.785157 3.890625 8.664063 8.679688 8.675782h37.140625v-34.449219h.085937c0-.089844-.085937-.175781-.085937-.261719-4.339844 3.472656-10.675782-12.84375-19.785156-17.355468-8.070313-4.078126-16.140626 11.195312-26.035157 10.933593zm0 0" fill="#464f5d" data-original="#464f5d"></path><path xmlns="http://www.w3.org/2000/svg" d="m332.636719 43.3125c0 4.792969-3.886719 8.679688-8.675781 8.679688-4.792969 0-8.679688-3.886719-8.679688-8.679688 0-4.789062 3.886719-8.675781 8.679688-8.675781 4.789062 0 8.675781 3.886719 8.675781 8.675781zm0 0" fill="#d1d4d1" data-original="#d1d4d1"></path><path xmlns="http://www.w3.org/2000/svg" d="m104.582031 503.246094c0 4.792968 3.886719 8.679687 8.679688 8.679687h149.953125c4.792968 0 8.679687-3.886719 8.679687-8.679687 0-4.792969-3.886719-8.675782-8.679687-8.675782h-158.632813" fill="#464f5d" data-original="#464f5d"></path><path xmlns="http://www.w3.org/2000/svg" d="m288.035156 162.984375c.535156.59375 1.113282 1.144531 1.734375 1.648437 3.308594 2.644532 6.921875 4.886719 10.761719 6.679688 33.582031-12.40625 52.5-56.664062 57.011719-68.46875.148437-.988281.503906-1.933594 1.042969-2.777344.050781-.042968.082031-.105468.085937-.171875 9.882813-13.21875 18.925781-27.042969 27.074219-41.394531-6.847656-11.539062-19.125-18.773438-32.539063-19.175781-1.65625 1.523437-2.625 3.648437-2.691406 5.898437-.261719 7.8125-4.078125 20.480469-26.292969 21.261719-8.503906.359375-15.558594 6.6875-16.835937 15.101563-3.039063 15.507812-8.894531 30.332031-17.269531 43.734374-6.507813 11.628907-12.324219 26.207032-2.082032 37.664063zm0 0" fill="#f3d55b" data-original="#f3d55b"></path><path xmlns="http://www.w3.org/2000/svg" d="m358.585938 100.066406c-.539063.84375-.894532 1.789063-1.042969 2.777344.425781-.894531.773437-1.824219 1.042969-2.777344zm0 0" fill="#f5efca" data-original="#f5efca"></path><path xmlns="http://www.w3.org/2000/svg" d="m353.207031 39.324219 4.25.433593c11.796875 1.601563 22.214844 8.503907 28.289063 18.742188 45.910156 3.125 59.707031-10.671875 59.707031-10.671875s-8.679687-26.035156-69.425781-26.035156c-.171875.085937-.347656.261719-.519532.347656-6.207031 5.789063-12.914062 11.015625-20.046874 15.621094-.828126.394531-1.589844.921875-2.253907 1.5625zm0 0" fill="#464f5d" data-original="#464f5d"></path><path xmlns="http://www.w3.org/2000/svg" d="m353.207031 39.324219 4.25.433593c11.796875 1.601563 22.214844 8.503907 28.289063 18.742188 45.910156 3.125 59.707031-10.671875 59.707031-10.671875-29.722656-9.710937-61.25-12.617187-92.246094-8.503906zm0 0" fill="#f18d46" data-original="#f18d46"></path></g></svg>