<svg xmlns="http://www.w3.org/2000/svg" version="1.1" xmlns:xlink="http://www.w3.org/1999/xlink" xmlns:svgjs="http://svgjs.com/svgjs" width="512" height="512" x="0" y="0" viewBox="0 0 1024 1024" style="enable-background:new 0 0 512 512" xml:space="preserve" class=""><g><path xmlns="http://www.w3.org/2000/svg" d="m691.989914 1023.996962c74.747984 0 135.344032-60.596048 135.344032-135.344032v-573.318984c0-174.151747-141.176124-315.333946-315.330908-315.333946s-315.333947 141.182199-315.333947 315.333946v573.322022c0 74.744947 60.59301 135.344032 135.344032 135.344032h359.976791z" fill="#333e48" p-id="4705" data-original="#333e48" class=""></path><path xmlns="http://www.w3.org/2000/svg" d="m192.158332 654.615922c30.390669 30.387631 79.644512 30.384594 110.026069 0 30.381556-30.381556 30.381556-79.635399 0-110.016955l-188.249008-188.249008c-60.760075 60.760075-60.760075 159.270799-.003038 220.036949zm639.686373 0c-30.390669 30.387631-79.644512 30.384594-110.026068 0-30.381556-30.381556-30.381556-79.635399 0-110.016955l188.249008-188.249008c60.760075 60.760075 60.760075 159.270799.003037 220.036949z" fill="#333e48" p-id="4706" data-original="#333e48" class=""></path><path xmlns="http://www.w3.org/2000/svg" d="m512.003038 592.01813c-95.105632 0-172.198603 77.099047-172.198604 172.201641v259.774154h344.400245v-259.774154c-.003038-95.102594-77.102084-172.201641-172.201641-172.201641z" fill="#e8e8e8" p-id="4707" data-original="#e8e8e8" class=""></path><path xmlns="http://www.w3.org/2000/svg" d="m716.092859 351.167902v-90.282006c0-61.923456-50.201558-112.121977-112.121977-112.121976-38.081741 0-71.701324 18.999864-91.967844 48.014523-20.266521-29.01466-53.886104-48.014523-91.967845-48.014523-61.920419 0-112.121977 50.19852-112.121977 112.121976v90.285043a101.578647 101.578647 0 0 0 -22.322941 63.660934c0 56.358668 45.687761 102.046429 102.046429 102.046429h248.732667c56.35563 0 102.043392-45.687761 102.043391-102.046429a101.584722 101.584722 0 0 0 -22.319903-63.663971z" fill="#ffffff" p-id="4708" data-original="#ffffff" class=""></path><path xmlns="http://www.w3.org/2000/svg" d="m563.124973 373.578932c0-28.230972-22.887925-51.121935-51.121935-51.121935s-51.121935 22.890963-51.121935 51.121935c0 28.23401 51.121935 51.121935 51.121935 51.121935s51.121935-22.887925 51.121935-51.121935z" fill="#ed9900" p-id="4709" data-original="#ed9900" class=""></path><path xmlns="http://www.w3.org/2000/svg" d="m370.346981 284.985803a26.074313 26.074313 0 1 0 52.148626 0 26.074313 26.074313 0 1 0 -52.148626 0z" fill="#333e48" p-id="4710" data-original="#333e48" class=""></path><path xmlns="http://www.w3.org/2000/svg" d="m601.507431 284.985803a26.074313 26.074313 0 1 0 52.148626 0 26.074313 26.074313 0 1 0 -52.148626 0z" fill="#333e48" p-id="4711" data-original="#333e48" class=""></path><path xmlns="http://www.w3.org/2000/svg" d="m420.588027 948.197986h-83.514349c-20.931744 0-37.89645 16.970781-37.89645 37.902526s16.967744 37.899488 37.89645 37.899488h83.514349c20.931744 0 37.902526-16.967744 37.902525-37.899488-.003038-20.931744-16.973819-37.902526-37.902525-37.902526zm182.823946 0h83.517386c20.931744 0 37.899488 16.970781 37.899488 37.902526s-16.967744 37.899488-37.899488 37.899488h-83.517386c-20.928707 0-37.899488-16.967744-37.899488-37.899488.003038-20.931744 16.973819-37.902526 37.899488-37.902526z" fill="#ed9900" p-id="4712" data-original="#ed9900" class=""></path></g></svg>