<svg width="512" height="512" viewBox="0 0 512 512" fill="none" xmlns="http://www.w3.org/2000/svg">
<g clip-path="url(#clip0_4_26)">
<path d="M507.211 43.777C505.987 40.298 503.256 37.567 499.776 36.342C470.116 25.903 435.793 32.524 412.073 56.243C388.354 79.962 381.733 114.285 392.172 143.946C393.396 147.425 396.127 150.156 399.607 151.381C429.268 161.819 463.59 155.199 487.31 131.48C511.029 107.76 517.649 73.437 507.211 43.777V43.777Z" fill="#70C6DB"/>
<path d="M507.211 43.777C506.18 40.848 504.074 38.462 501.359 37.046C505.772 63.069 497.952 90.757 477.866 110.843C454.147 134.562 419.824 141.183 390.164 130.744C389.614 130.55 389.091 130.307 388.581 130.041C389.379 134.749 390.574 139.403 392.173 143.947C393.397 147.426 396.128 150.157 399.608 151.381C429.269 161.82 463.591 155.199 487.31 131.48C511.029 107.761 517.649 73.437 507.211 43.777V43.777Z" fill="#64B0CB"/>
<path d="M508.042 46.278L402.11 152.21L375.673 178.657C374.181 180.139 372.233 180.89 370.284 180.89C368.336 180.89 366.387 180.139 364.905 178.657C361.931 175.683 361.931 170.863 364.905 167.889L497.284 35.51C498.116 35.774 498.949 36.048 499.781 36.342C503.252 37.57 505.982 40.3 507.21 43.781C507.504 44.614 507.778 45.446 508.042 46.278V46.278Z" fill="#5D91B9"/>
<path d="M508.042 46.278L502.541 51.779C502.582 46.847 502.186 41.915 501.364 37.043C501.536 37.134 501.699 37.226 501.861 37.317C502.693 37.804 503.444 38.373 504.134 39.022C504.408 39.286 504.672 39.56 504.915 39.844C505.037 39.986 505.159 40.138 505.28 40.28C505.513 40.574 505.737 40.879 505.94 41.204C506.458 41.996 506.884 42.868 507.209 43.782C507.504 44.614 507.778 45.446 508.042 46.278V46.278Z" fill="#4980AC"/>
<path d="M418.795 135.525L375.673 178.657C374.181 180.139 372.233 180.89 370.284 180.89C368.336 180.89 366.387 180.139 364.905 178.657C361.931 175.683 361.931 170.863 364.905 167.889L399.39 133.404C405.764 134.866 412.279 135.576 418.795 135.525V135.525Z" fill="#4980AC"/>
<path d="M508.042 46.278L502.541 51.779C502.582 46.847 502.186 41.915 501.364 37.043C502.637 37.717 503.798 38.539 504.916 39.844C506.696 41.916 507.202 43.63 508.042 46.278V46.278Z" fill="#4980AC"/>
<path d="M358.484 475.658C361.963 474.434 364.694 471.703 365.919 468.224C376.358 438.564 369.737 404.241 346.018 380.521C322.299 356.802 287.976 350.181 258.315 360.62C254.836 361.844 252.105 364.575 250.88 368.055C240.442 397.716 247.062 432.038 270.781 455.758C294.5 479.476 328.823 486.096 358.484 475.658V475.658Z" fill="#70C6DB"/>
<path d="M358.484 475.658C361.413 474.627 363.799 472.521 365.215 469.806C339.192 474.219 311.504 466.399 291.418 446.313C267.699 422.594 261.078 388.271 271.517 358.611C271.711 358.061 271.954 357.538 272.22 357.028C267.512 357.826 262.858 359.021 258.314 360.62C254.835 361.844 252.104 364.575 250.88 368.055C240.441 397.716 247.062 432.038 270.781 455.757C294.5 479.476 328.823 486.096 358.484 475.658V475.658Z" fill="#64B0CB"/>
<path d="M366.742 465.732C366.488 466.564 366.214 467.397 365.92 468.219C364.692 471.7 361.962 474.43 358.481 475.658C357.649 475.952 356.817 476.226 355.984 476.49L250.053 370.558L223.606 344.121C220.632 341.147 220.632 336.327 223.606 333.353C226.579 330.38 231.4 330.38 234.374 333.353L260.811 359.79L366.742 465.732Z" fill="#5D91B9"/>
<path d="M268.848 367.838C267.397 374.222 266.686 380.727 266.737 387.242L223.605 344.12C220.631 341.146 220.631 336.326 223.605 333.352C226.578 330.379 231.399 330.379 234.373 333.352L268.848 367.838Z" fill="#4980AC"/>
<path d="M365.22 469.802C364.717 470.752 364.243 471.518 363.241 472.583C361.016 474.893 358.98 475.541 355.985 476.49L350.485 470.989C355.417 471.03 360.339 470.624 365.21 469.802H365.22Z" fill="#4980AC"/>
</g>
<defs>
<clipPath id="clip0_4_26">
<rect width="512" height="512" fill="white"/>
</clipPath>
</defs>
</svg>
