<svg width="403" height="359" viewBox="0 0 403 359" fill="none" xmlns="http://www.w3.org/2000/svg">
<path d="M287.439 270.855C258.15 270.855 227.76 261.858 194.797 243.466C165.249 226.979 133.658 211.242 102.847 207.755C69.489 203.979 40.079 215.062 12.937 241.635C9.93099 244.576 5.11299 244.524 2.17299 241.521C-0.768013 238.518 -0.717013 233.698 2.28699 230.757C32.909 200.779 66.358 188.307 104.558 192.629C138.039 196.417 171.279 212.912 202.214 230.173C235.398 248.689 265.447 256.959 294.089 255.459C327.77 253.692 359.87 237.67 389.497 207.837C392.459 204.853 397.279 204.838 400.261 207.8C403.243 210.762 403.26 215.581 400.298 218.565C367.924 251.163 332.459 268.691 294.886 270.662C292.412 270.79 289.928 270.855 287.439 270.855V270.855Z" fill="#BED9FD"/>
<path d="M246.311 190.146C242.237 190.146 238.096 189.914 233.879 189.449C207.483 186.544 181.282 175.009 155.944 163.854C106.328 142.009 59.459 121.374 12.641 162.6C9.485 165.379 4.677 165.072 1.899 161.918C-0.878997 158.763 -0.573997 153.953 2.582 151.175C26.918 129.746 53.587 120.962 84.145 124.326C110.541 127.231 136.742 138.766 162.08 149.921C211.697 171.767 258.565 192.4 305.382 151.175C308.536 148.397 313.346 148.702 316.124 151.857C318.902 155.012 318.597 159.822 315.441 162.6C294.465 181.07 271.745 190.145 246.311 190.146V190.146Z" fill="#BED9FD"/>
<path d="M244.647 122.228C221.77 122.228 199.919 113.231 182.86 104.989C179.075 103.16 177.49 98.609 179.319 94.824C181.147 91.04 185.695 89.45 189.484 91.282C223.056 107.505 240.915 107.953 252.727 106.529C270.797 104.351 296.681 91.161 309.059 71.005C316.272 59.259 317.681 47.131 313.246 34.958C309.815 25.541 299.904 17.804 289.145 16.146C280.127 14.755 270.778 17.778 265.305 23.844C259.756 29.991 258.433 39.572 262.226 46.132C264.19 49.527 268.107 52.275 272.449 53.303C274.641 53.823 278.864 54.334 282.519 51.93C286.031 49.622 290.752 50.596 293.06 54.109C295.369 57.621 294.394 62.341 290.882 64.651C284.638 68.757 276.845 69.986 268.942 68.117C260.536 66.127 253.099 60.758 249.048 53.753C241.977 41.526 244.062 24.658 254.004 13.644C262.958 3.72601 277.311 -1.08199 291.464 1.10101C307.718 3.60701 322.219 15.119 327.549 29.748C333.569 46.27 331.66 63.292 322.031 78.972C306.993 103.459 276.7 118.973 254.548 121.643C251.236 122.043 247.93 122.228 244.647 122.228V122.228Z" fill="#BED9FD"/>
<path d="M52.157 358.897C49.911 358.897 47.65 358.727 45.391 358.379C29.136 355.872 14.635 344.36 9.30699 329.732C3.28699 313.211 5.19499 296.189 14.824 280.508C29.862 256.021 60.154 240.507 82.307 237.837C108.708 234.651 134.488 245.065 153.995 254.491C157.78 256.32 159.366 260.871 157.537 264.656C155.708 268.439 151.159 270.028 147.372 268.198C113.795 251.974 95.934 251.526 84.128 252.951C66.058 255.129 40.174 268.319 27.796 288.475C20.583 300.221 19.175 312.349 23.61 324.522C27.04 333.939 36.951 341.675 47.711 343.334C56.717 344.726 66.076 341.702 71.55 335.636C77.099 329.49 78.423 319.909 74.629 313.348C72.665 309.953 68.748 307.205 64.406 306.177C62.214 305.659 57.992 305.146 54.336 307.55C50.825 309.858 46.104 308.883 43.795 305.371C41.486 301.859 42.461 297.139 45.973 294.829C52.217 290.723 60.009 289.493 67.913 291.363C76.319 293.353 83.756 298.722 87.807 305.727C94.878 317.955 92.794 334.823 82.85 345.836C75.325 354.171 63.984 358.896 52.157 358.897V358.897Z" fill="#BED9FD"/>
</svg>
